HIERARCHY
ROOT Hips
{
  OFFSET -134.013 77.6921 293.269
  CHANNELS 6 Xposition Yposition Zposition Zrotation Xrotation Yrotation
  JOINT RightUpLeg
  {
    OFFSET -8.9458 -8.66707 0.101652
    CHANNELS 3 Zrotation Xrotation Yrotation
    JOINT RightLeg
    {
      OFFSET 0 -44.4227 1.3727
      CHANNELS 3 Zrotation Xrotation Yrotation
      JOINT RightFoot
      {
        OFFSET 0.253549 -42.0924 -1.46059
        CHANNELS 3 Zrotation Xrotation Yrotation
        JOINT RightToes
        {
          OFFSET 0.04 -4.41509 8.4991
          CHANNELS 3 Zrotation Xrotation Yrotation
          End Site
          {
            OFFSET -0.08 -0.137448 9.77979
          }
        }
      }
    }
  }
  JOINT Spine
  {
    OFFSET 0 11.8905 0
    CHANNELS 3 Zrotation Xrotation Yrotation
    JOINT Spine1
    {
      OFFSET 0 25.6574 0.127663
      CHANNELS 3 Zrotation Xrotation Yrotation
      JOINT HEad
      {
        OFFSET 0 8.73416 0.011341
        CHANNELS 3 Zrotation Xrotation Yrotation
        End Site
        {
          OFFSET -0.29 12.7742 2.51395
        }
      }
      JOINT LeftShoulder1
      {
        OFFSET 8.99 -0.362252 -0.22
        CHANNELS 3 Zrotation Xrotation Yrotation
        JOINT LeftArm
        {
          OFFSET 10.2827 -0.00338 0.322123
          CHANNELS 3 Zrotation Xrotation Yrotation
          JOINT LeftForeArm
          {
            OFFSET 32.7669 0.099144 -1.42434
            CHANNELS 3 Zrotation Xrotation Yrotation
            JOINT LeftHand
            {
              OFFSET 27.5643 0.085362 1.02216
              CHANNELS 3 Zrotation Xrotation Yrotation
              End Site
              {
                OFFSET 16.7443 -0.6 1.50291
              }
            }
          }
        }
      }
      JOINT RightShoulder
      {
        OFFSET -8.99 -0.362252 -0.22
        CHANNELS 3 Zrotation Xrotation Yrotation
        JOINT RightArm
        {
          OFFSET -10.2827 -0.00338 0.322123
          CHANNELS 3 Zrotation Xrotation Yrotation
          JOINT RightForeArm
          {
            OFFSET -32.8971 0.099144 -1.42434
            CHANNELS 3 Zrotation Xrotation Yrotation
            JOINT RightHand
            {
              OFFSET -27.4921 0.085362 1.02216
              CHANNELS 3 Zrotation Xrotation Yrotation
              End Site
              {
                OFFSET -16.6312 -0.6 1.50291
              }
            }
          }
        }
      }
    }
  }
  JOINT LeftUpLeg
  {
    OFFSET 8.9458 -8.66707 0.101652
    CHANNELS 3 Zrotation Xrotation Yrotation
    JOINT LeftLeg
    {
      OFFSET 0 -44.4227 1.3727
      CHANNELS 3 Zrotation Xrotation Yrotation
      JOINT LeftFoot
      {
        OFFSET -0.253549 -42.0924 -1.46059
        CHANNELS 3 Zrotation Xrotation Yrotation
        JOINT LeftToes
        {
          OFFSET -0.04 -4.41509 8.4991
          CHANNELS 3 Zrotation Xrotation Yrotation
          End Site
          {
            OFFSET 0.08 -0.047448 9.77979
          }
        }
      }
    }
  }
}
MOTION
Frames:	21
Frame Time:	0.0166667
-108.892 81.0189 276.692 -16.0223 -11.7299 -37.602 -2.26978 -15.6756 -3.72128 1.12825 62.3476 4.71235 -30.4111 3.57046 -0.0449718 0.0462048 0.000533403 0.662642 8.69163 9.31677 3.89541 0.00328675 -0.00526468 -0.00255825 12.2133 39.8711 25.9206 7.95139e-016 -4.77083e-015 -0 -146.839 -57.3701 -150.427 -53.6666 53.8833 -58.6072 5.98255 18.3043 -1.85597 23.2674 2.11771 10.8465 84.2096 -23.4742 79.4241 36.3308 48.3542 64.3956 -13.6812 15.7321 9.615 4.3049 -29.3759 15.3371 14.6226 21.7652 1.52662 -20.7217 -7.30017 -1.56861 -1.18447e-009 1.5602e-007 -4.87131e-009 
-107.043 80.8102 275.51 -16.2394 -11.6458 -36.5579 -0.12147 -15.7297 -1.83174 -2.17621 61.0653 5.41132 -29.1993 3.43117 0.033409 0.0462048 0.000533403 0.662642 9.72441 9.79026 3.60362 0.00439205 -0.00344461 -0.00414945 14.7616 40.8191 23.8358 -7.95139e-016 0 -6.36111e-015 -146.689 -57.4979 -149.782 -54.3773 53.8981 -58.7425 5.95204 17.7031 -2.1832 23.654 2.25082 10.2227 85.4494 -23.6916 80.3634 36.9432 49.5593 64.4894 -7.64521 19.1491 1.62478 4.27579 -30.3329 16.4916 13.25 23.1327 1.24725 -18.0985 -7.07757 -1.30185 -1.18447e-009 1.5602e-007 -4.87132e-009 
-105.184 80.669 274.41 -16.6112 -11.6153 -35.5674 1.59795 -16.5876 -0.230012 -5.56304 60.9563 6.58715 -27.8571 3.2872 0.0885779 0.0462048 0.000533403 0.662642 10.8605 10.247 3.24028 0.00544957 -0.00169623 -0.00694004 17.155 41.553 21.8821 -0 -3.18055e-015 -0 -146.142 -57.51 -148.425 -55.4311 54.136 -58.6843 6.09798 17.0402 -2.38447 24.1317 2.60973 9.2889 86.4872 -23.9133 81.2121 37.7726 50.6999 64.7673 -11.7496 17.1749 6.56037 4.598 -31.4175 17.5785 11.9487 25.4375 0.830587 -15.6213 -6.6108 -1.03723 -1.18447e-009 1.5602e-007 -4.87131e-009 
-103.291 80.7983 273.325 -17.1133 -11.6464 -34.6877 1.61581 -18.459 1.58706 -8.68024 61.801 8.00218 -5.7865 2.58672 -0.33778 0.0462048 0.000533403 0.662642 12.0617 10.7138 2.84086 0.0063819 1.69272e-005 -0.00904306 19.3665 42.1165 20.0999 0 0 -0 -145.128 -57.4029 -146.391 -65.4092 54.0408 -52.6848 8.42047 20.9241 -1.72893 24.7573 3.1172 8.1673 87.2399 -24.221 81.8389 38.736 51.8585 65.0094 -7.86582 19.0718 1.26332 5.34566 -32.2247 18.6842 10.3321 27.6389 0.694205 -12.9048 -5.66968 -0.784135 -1.18447e-009 1.5602e-007 -4.87131e-009 
-101.368 80.7137 272.265 -17.7266 -11.7213 -33.9683 2.33868 -19.6001 2.97945 -11.0664 61.6675 8.24929 2.46702 2.37974 -0.12787 0.0462048 0.000533403 0.662642 13.3046 11.2063 2.43477 0.00711148 0.00172034 -0.0108553 21.3761 42.544 18.5248 -7.95139e-016 3.18055e-015 -0 -143.507 -57.1369 -143.687 -79.1433 52.058 -44.2011 2.92352 10.7755 -4.26185 25.454 3.67111 6.88143 87.7261 -24.6692 82.2336 39.7901 52.8618 65.357 -10.3907 18.3556 3.91008 6.43359 -33.7743 19.805 9.20031 31.1495 0.275825 -10.2789 -5.03861 -0.590002 -1.18446e-009 1.5602e-007 -4.87131e-009 
-99.4289 80.5986 271.205 -18.4244 -11.8027 -33.435 2.70432 -20.3259 4.27619 -12.8203 61.0061 7.77413 13.4911 2.15061 -0.0444176 0.0462048 0.000533403 0.662642 14.5671 11.7118 2.04844 0.00756078 0.00343948 -0.0124949 23.1781 42.8565 17.1713 -7.95139e-016 0 3.18055e-015 -135.285 -55.8966 -133.398 -80.2937 52.1613 -43.5292 11.6522 28.6188 -1.02301 26.1953 4.19973 5.52218 87.9381 -25.2781 82.3621 40.8207 53.7176 65.6613 -7.84162 19.4082 0.327288 7.59571 -35.5039 20.8704 9.17295 35.378 -0.729883 -8.42357 -4.34575 -0.462557 -1.18447e-009 1.5602e-007 -4.87131e-009 
-97.4235 80.6155 270.153 -19.1876 -11.859 -33.0903 3.5754 -19.8088 4.92331 -14.4172 59.0952 6.86727 15.8006 1.6908 0.225012 0.0462048 0.000533403 0.662642 15.8329 12.2281 1.67865 0.00765227 0.00519982 -0.0140802 24.7486 43.0627 16.0677 -2.38542e-015 -1.59028e-015 3.18055e-015 -124.599 -52.965 -120.405 -74.2772 53.5109 -47.5841 -1.76941 4.66533 -6.48788 26.8663 4.66122 4.11772 87.9629 -26.0248 82.2833 41.7717 54.3116 65.9868 -9.27444 19.3634 1.75411 8.67497 -37.1878 21.7947 10.0543 39.4823 -2.38479 -7.20872 -3.60841 -0.400163 -1.18446e-009 1.5602e-007 -4.87132e-009 
-95.3957 80.7758 269.122 -19.9944 -11.8609 -32.9356 4.09638 -18.2359 4.97852 -16.024 55.7588 6.31206 21.0481 1.23593 0.372668 0.0462048 0.000533403 0.662642 17.0873 12.7706 1.30302 0.00689224 0.0070498 -0.0154903 26.0188 43.1525 15.2864 7.95139e-016 0 -6.36111e-015 -118.693 -50.4701 -113.069 -69.9123 53.8268 -50.9392 10.1237 16.1135 -7.36911 27.3942 5.04535 2.71147 87.8669 -26.8165 82.0346 42.5897 54.682 66.2226 -7.51718 19.8925 -0.58246 9.62106 -38.8148 22.5179 11.7606 43.2129 -4.80807 -6.58977 -2.97259 -0.387021 -1.18446e-009 1.5602e-007 -4.87131e-009 
-93.3245 81.1948 268.147 -20.8258 -11.8007 -32.9848 4.93023 -16.1399 4.26311 -17.9008 51.4617 6.34115 21.1163 0.580299 0.631692 0.0462048 0.000533403 0.662642 18.7886 14.2905 -0.0335242 0.0428707 0.0815289 -0.083292 25.2416 42.6139 16.5972 0 0 -0 -117.221 -48.9238 -110.574 -67.1044 54.0686 -53.2611 1.06431 10.8863 -4.55577 27.0948 4.89764 2.34001 87.7116 -27.3566 81.5986 40.3853 52.5873 64.76 -6.74587 19.0256 4.62922 10.4112 -39.4617 22.049 12.607 45.7366 -6.37069 -6.48221 -2.4521 -0.407971 -1.18446e-009 1.5602e-007 -4.87132e-009 
-91.2269 81.8019 267.226 -21.6562 -11.6786 -33.2588 5.34637 -13.5912 2.82536 -19.7677 45.9899 7.13619 25.1779 0.0492884 0.753381 0.0462048 0.000533403 0.662642 20.7446 16.5266 -2.29103 0.0238905 0.0729189 -0.0886915 23.0463 41.6862 19.5447 1.19271e-015 2.38542e-015 6.36111e-015 -118.166 -48.3356 -110.98 -65.2586 54.1793 -54.8819 7.89348 17.256 -5.52801 26.1955 4.50689 3.058 87.2766 -31.7505 80.1422 43.0479 52.5848 64.8533 -6.39932 24.2553 -11.982 10.9099 -39.2832 20.462 12.5252 47.1424 -7.08193 -6.84888 -2.11266 -0.437937 -1.18446e-009 1.5602e-007 -4.87131e-009 
-89.1603 82.5074 266.436 -22.3953 -11.5064 -33.7238 5.57717 -11.2218 0.569161 -22.0087 41.0133 9.30266 29.42 -0.554805 1.00634 0.0462048 0.000533403 0.662642 22.8077 19.1934 -5.41532 0.0149506 0.0587989 -0.0876211 19.6875 40.3575 23.9113 -1.59028e-015 -7.95139e-016 3.18055e-015 -121.064 -48.8497 -113.616 -64.6067 54.5262 -55.9974 2.54674 14.0617 -3.52456 24.888 3.97182 4.74353 87.0473 -33.9958 79.2032 44.7663 52.8998 64.96 -5.37019 19.5757 4.29982 10.4488 -38.4237 17.9011 15.3654 50.6866 -10.6413 3.13639 -1.15043 0.401546 -1.18446e-009 1.5602e-007 -4.87131e-009 
-86.88 83.4285 265.571 -21.69 -10.5674 -35.5294 5.86627 -10.7588 -1.00506 -24.2258 35.6505 11.7191 25.4837 -1.84505 1.21604 0.0462048 0.000533403 0.662642 23.5384 21.4693 -7.40195 0.00938058 0.049549 -0.0859408 15.0318 37.0768 29.404 -7.95139e-016 0 3.18055e-015 -125.46 -49.8537 -118.153 -64.4185 54.8608 -56.7439 6.83493 17.7079 -4.0207 23.4031 3.35989 7.16207 86.8795 -34.8568 78.6544 45.8192 53.2236 65.0034 -4.48304 30.9689 -24.208 10.2229 -37.5404 16.6297 15.9277 52.0519 -12.4911 13.0334 -0.321448 0.56948 -1.18447e-009 1.5602e-007 -4.87131e-009 
-84.4516 84.4728 264.665 -19.8075 -9.06389 -38.5345 5.55613 -11.7103 -2.02456 -25.8934 30.1632 15.0256 21.6842 -2.75436 1.05998 0.0462048 0.000533403 0.662642 22.7469 23.3239 -8.70117 0.0093643 0.0442991 -0.0750708 10.0054 32.0978 35.7459 3.97569e-016 -1.98785e-015 6.36111e-015 -131.226 -51.4175 -124.654 -64.5744 55.2937 -57.1064 3.88429 15.9745 -2.62434 21.2631 4.53443 0.304216 88.5818 -24.5337 80.8327 46.3432 53.498 65.1423 -1.36425 25.2861 -10.3264 12.3853 -36.9738 16.9855 19.689 55.9407 -17.4692 1.41232 -0.650441 -0.640019 -1.18446e-009 1.5602e-007 -4.87132e-009 
-82.0054 85.3318 263.677 -16.9735 -7.16698 -42.6625 3.731 -14.0612 -2.68831 -24.5305 24.8659 15.918 27.7561 -3.37704 1.09843 0.0462048 0.000533403 0.662642 20.3953 23.9834 -8.08389 0.00931249 -0.0158997 0.0224598 6.24015 26.1162 40.8244 1.59028e-015 0 3.18055e-015 -136.459 -52.8447 -130.793 -64.883 55.6796 -57.2402 6.74031 18.1318 -2.81088 20.2278 4.36408 4.24781 88.2504 -25.4117 80.6073 41.8492 54.0942 64.7427 -5.87007 25.0454 -12.7898 14.7062 -36.5494 18.0207 20.1117 56.9644 -20.427 -9.93059 -0.113187 -0.906799 -1.18446e-009 1.5602e-007 -4.87131e-009 
-79.5562 86.157 262.686 -13.374 -5.03825 -47.8582 2.73425 -18.4087 -3.12804 -22.6007 21.9213 15.454 20.8608 -4.9676 1.20515 0.0462048 0.000533403 0.662642 17.156 23.5277 -5.56062 0.00931421 -0.0195997 0.0232398 3.37882 19.1472 44.6116 -4.47266e-016 9.93923e-016 -3.18055e-015 -141.925 -54.1515 -137.054 -65.7742 55.9457 -57.2726 5.16627 17.2517 -1.82679 19.2696 4.32484 7.17163 87.857 -25.8731 80.4572 39.7376 54.5505 65.0489 -3.86666 20.3299 -1.96351 16.9207 -36.0835 19.5325 17.0921 54.9231 -20.4565 -21.0362 0.493123 -0.881935 -1.18447e-009 1.5602e-007 -4.87132e-009 
-77.2877 86.6674 261.759 -10.3426 -3.48161 -52.573 0.0394052 -23.0898 -5.45908 -18.4403 20.7521 13.9517 21.9562 -5.74769 1.1917 0.0462048 0.000533403 0.662642 14.427 22.8718 -3.53147 0.00931355 -0.017966 0.0232398 1.66999 12.9131 47.6249 -1.01256e-015 -4.22417e-016 -3.18055e-015 -146.991 -54.9828 -142.763 -66.6337 56.1529 -57.1978 7.04125 18.4999 -1.70599 18.3979 4.42665 9.33542 87.4398 -26.1588 80.3992 39.0059 54.8113 65.5357 -6.36552 20.9973 -5.33388 18.1428 -35.0617 19.2286 13.4679 50.9062 -19.5727 -32.4498 1.00029 -0.820111 -1.18446e-009 1.5602e-007 -4.8713e-009 
-75.1323 87.2583 260.821 -7.81065 -2.36351 -56.813 -2.35678 -27.3583 -8.31091 -13.0967 21.2966 10.464 13.8193 -7.0167 0.978922 0.0462048 0.000533403 0.662642 12.1045 22.0907 -1.91249 0.00931196 -0.0140465 0.0232398 0.728843 7.45471 50.1436 -2.78299e-015 -3.37934e-015 -0 -151.438 -55.398 -147.643 -67.4196 56.4155 -56.888 6.21486 17.9619 -1.0196 17.5932 4.64813 10.8889 87.053 -26.291 80.4079 39.0837 55.0775 66.2161 -4.56612 19.0422 -0.104173 17.9394 -34.3673 17.394 9.26604 46.9127 -17.785 -31.7149 1.69161 -0.389425 -1.18446e-009 1.5602e-007 -4.87132e-009 
-73.176 87.6261 259.937 -5.7422 -1.587 -60.5625 -4.86631 -30.8136 -11.5803 -8.60638 22.1432 8.77855 13.7237 -6.03554 0.9514 0.0462048 0.000533403 0.662642 10.1144 21.2433 -0.650167 0.00931037 -0.0101269 0.0232398 0.304376 2.77044 52.2911 -1.98785e-016 4.72114e-015 6.36111e-015 -152.114 -52.3799 -147.519 -66.4964 58.7142 -54.772 7.30955 18.5328 -0.749779 16.8702 4.96284 12.0125 86.7253 -26.3633 80.5186 39.5368 55.2292 66.8207 -6.3111 19.8744 -2.65261 17.4348 -33.4995 14.4497 7.2032 43.1056 -16.5064 -31.6307 1.50719 -0.382981 -1.18447e-009 1.5602e-007 -4.87131e-009 
-71.2995 87.9041 259.07 -4.08856 -1.08482 -63.7906 -6.68351 -33.9891 -14.8161 -5.31505 24.0278 8.79918 9.96827 -5.42226 0.628151 0.0462048 0.000533403 0.662642 8.39441 20.3846 0.259265 0.00931037 -0.0101269 0.0232398 0.203418 -1.1798 54.1355 4.96962e-016 -1.19271e-015 3.18055e-015 -153.717 -50.8392 -148.62 -66.6846 59.88 -53.3293 6.64099 18.0283 -0.215419 16.3013 5.36528 12.7164 86.4313 -26.3218 80.7005 40.1831 55.3672 67.4064 -5.12563 18.8871 -0.0371079 16.7391 -32.1364 10.7436 4.96954 38.1755 -13.7443 -31.2515 1.15326 -0.444744 -1.18447e-009 1.5602e-007 -4.87131e-009 
-69.5276 88.2837 258.14 -2.80808 -0.821103 -66.4719 -8.15324 -36.5612 -17.9427 -2.77355 25.6949 9.35348 6.42743 -4.074 0.238571 0.0462048 0.000533403 0.662642 6.88457 19.5703 0.82304 0.00931037 -0.0101269 0.0232398 0.273074 -4.44233 55.6902 -5.96354e-016 -5.31749e-015 3.18055e-015 -155.583 -50.2167 -149.962 -67.4972 60.4177 -52.2541 7.00424 18.1432 0.288526 15.9216 5.8702 13.186 86.1787 -26.3155 80.9456 40.8936 55.4181 67.8504 -6.48056 19.3647 -1.66401 15.0311 -31.4352 6.54204 3.91032 36.614 -8.12524 -15.4774 -0.0173944 -0.467371 -1.18446e-009 1.5602e-007 -4.87131e-009 
-67.9784 88.1866 257.394 -1.86527 -0.793014 -68.6003 -9.78845 -39.8918 -21.1052 -1.43144 29.6999 10.8053 3.2041 -3.5739 -0.0101492 0.0462048 0.000533403 0.662642 5.50949 18.8499 1.06438 0.00931037 -0.0101269 0.0232398 0.393672 -7.06343 56.9499 -5.96354e-016 -5.46658e-015 -0 -157.334 -50.1664 -150.819 -73.0838 56.3791 -47.5573 11.9149 4.33583 0.373637 15.7634 6.49497 13.4789 85.9644 -26.3853 81.1815 41.6396 55.4811 68.2139 -5.85081 18.6447 -0.218498 15.3406 -29.5364 3.32195 2.66803 34.2143 -1.28511 -23.3085 -0.13224 -0.595299 -1.18446e-009 1.5602e-007 -4.87132e-009 
